<svg xmlns="http://www.w3.org/2000/svg" width="24" height="24" viewBox="0 0 24 24"><path fill-rule="evenodd" d="M12.0942383,23.8637695 C12.3302409,23.8637695 12.5255534,23.7884928 12.6801758,23.6379395 C12.8347982,23.4873861 12.9121094,23.2941081 12.9121094,23.0581055 L12.9121094,6.09033203 L12.844207,3.48725781 L16.1103516,7.00585938 L19.8212891,10.6801758 C19.8945312,10.753418 19.982015,10.8083496 20.0837402,10.8449707 C20.1854655,10.8815918 20.2932943,10.8999023 20.4072266,10.8999023 C20.6269531,10.8999023 20.8120931,10.8225911 20.9626465,10.6679688 C21.1131999,10.5133464 21.1884766,10.3221029 21.1884766,10.0942383 C21.1884766,9.87451172 21.1070964,9.67513021 20.9443359,9.49609375 L12.7045898,1.26855469 C12.6232096,1.17903646 12.5316569,1.11189779 12.4299316,1.06713867 C12.3282064,1.02237956 12.2163086,1 12.0942383,1 C11.980306,1 11.8724772,1.02237956 11.770752,1.06713867 C11.6690267,1.11189779 11.5734049,1.17903646 11.4838867,1.26855469 L3.25634766,9.49609375 C3.08544922,9.67513021 3,9.87451172 3,10.0942383 C3,10.3221029 3.07527669,10.5133464 3.22583008,10.6679688 C3.37638346,10.8225911 3.56559245,10.8999023 3.79345703,10.8999023 C3.8992513,10.8999023 4.00504557,10.8815918 4.11083984,10.8449707 C4.21663411,10.8083496 4.30208333,10.753418 4.3671875,10.6801758 L8.078125,7.00585938 L11.355207,3.47325781 L11.2885742,6.09033203 L11.2885742,23.0581055 C11.2885742,23.2941081 11.3638509,23.4873861 11.5144043,23.6379395 C11.6649577,23.7884928 11.8582357,23.8637695 12.0942383,23.8637695 Z"/></svg>