<svg xmlns="http://www.w3.org/2000/svg" width="24" height="24" viewBox="0 0 24 24"><g fill="none" fill-rule="evenodd"><path fill="#000" d="M15.4481487,6.94230769 L8.55185129,6.94230769 C6.71294973,6.94230769 5.14535611,8.27572962 4.85040353,10.0908224 L3.82540353,16.3985147 C3.79308792,16.59738 3.77685129,16.7985262 3.77685129,17 C3.77685129,19.0710678 5.45578348,20.75 7.52685129,20.75 L16.4731487,20.75 C16.6746225,20.75 16.8757687,20.7337634 17.074634,20.7014478 C19.1188871,20.3692566 20.5067876,18.4427679 20.1745965,16.3985147 L19.1495965,10.0908224 C18.8546439,8.27572962 17.2870503,6.94230769 15.4481487,6.94230769 Z M8.55185129,8.44230769 L15.4481487,8.44230769 C16.5514896,8.44230769 17.4920458,9.24236085 17.6690174,10.3314165 L18.6940174,16.6391088 C18.893332,17.8656607 18.0605918,19.021554 16.8340399,19.2208687 C16.7147207,19.240258 16.594033,19.25 16.4731487,19.25 L7.52685129,19.25 C6.2842106,19.25 5.27685129,18.2426407 5.27685129,17 C5.27685129,16.8791157 5.28659327,16.758428 5.30598263,16.6391088 L6.33098263,10.3314165 C6.50795418,9.24236085 7.44851035,8.44230769 8.55185129,8.44230769 Z" transform="matrix(1 0 0 -1 0 27.692)"/><path fill="#000" d="M11.6923077,3.25 C14.0679286,3.25 16.0168884,5.06390154 16.1294781,7.35468868 L16.1346154,7.56421859 L16.1346154,10.1538462 C16.1346154,10.5680597 15.7988289,10.9038462 15.3846154,10.9038462 C15.0049196,10.9038462 14.6911244,10.6216923 14.641462,10.2556167 L14.6346154,10.1538462 L14.6346154,7.56421859 C14.6346154,6.01600941 13.3231088,4.75 11.6923077,4.75 C10.1197495,4.75 8.84408631,5.92719497 8.75497332,7.39946369 L8.75,7.56421859 L8.75,10.1538462 C8.75,10.5680597 8.41421356,10.9038462 8,10.9038462 C7.62030423,10.9038462 7.30650904,10.6216923 7.25684662,10.2556167 L7.25,10.1538462 L7.25,7.56421859 C7.25,5.17550062 9.2446983,3.25 11.6923077,3.25 Z"/></g></svg>