<svg xmlns="http://www.w3.org/2000/svg" width="24" height="24" viewBox="0 0 24 24"><path fill-rule="evenodd" d="M12.1660156,15.2050781 C12.311849,15.2005208 12.4474284,15.1708984 12.5727539,15.1162109 C12.6980794,15.0615234 12.8154297,14.9772135 12.9248047,14.8632812 L18.0449219,9.61328125 C18.2272135,9.43098958 18.3183594,9.21223958 18.3183594,8.95703125 C18.3183594,8.77929688 18.2762044,8.61751302 18.1918945,8.47167969 C18.1075846,8.32584635 17.9936523,8.21077474 17.8500977,8.12646484 C17.706543,8.04215495 17.5481771,8 17.375,8 C17.1106771,8 16.8782552,8.09798177 16.6777344,8.29394531 L12.1651328,12.9488281 L7.640625,8.29394531 C7.44010417,8.09798177 7.20768229,8 6.94335938,8 C6.77018229,8 6.61181641,8.04215495 6.46826172,8.12646484 C6.32470703,8.21077474 6.21077474,8.32584635 6.12646484,8.47167969 C6.04215495,8.61751302 6,8.77929688 6,8.95703125 C6,9.08463542 6.02278646,9.203125 6.06835938,9.3125 C6.11393229,9.421875 6.18229167,9.52441406 6.2734375,9.62011719 L11.3935547,14.8632812 C11.6259766,15.0911458 11.8834635,15.2050781 12.1660156,15.2050781 Z"/></svg>