<svg xmlns="http://www.w3.org/2000/svg" width="145.633" height="24" viewBox="0 0 145.633 24"><polygon points="0 24 6.667 0 10 0 3.307 24"/><path d="M23.2470588,22 C21.8379085,22 20.5934641,21.7559853 19.5137255,21.2679558 C18.4339869,20.7799263 17.5830065,20.0801105 16.9607843,19.1685083 C16.3385621,18.2569061 16.0183007,17.1473297 16,15.839779 L19.7058824,15.839779 C19.7424837,16.7421731 20.0673203,17.5018416 20.6803922,18.1187845 C21.2934641,18.7357274 22.1398693,19.0441989 23.2196078,19.0441989 C24.1529412,19.0441989 24.8941176,18.8186004 25.4431373,18.3674033 C25.9921569,17.9162063 26.2666667,17.3130755 26.2666667,16.558011 C26.2666667,15.7661142 26.024183,15.1491713 25.5392157,14.7071823 C25.0542484,14.2651934 24.4091503,13.9060773 23.6039216,13.6298343 C22.7986928,13.3535912 21.9385621,13.0589319 21.0235294,12.7458564 C19.5411765,12.2302026 18.4111111,11.5672192 17.6333333,10.7569061 C16.8555556,9.946593 16.4666667,8.86924494 16.4666667,7.52486188 C16.448366,6.38305709 16.7183007,5.40239411 17.2764706,4.58287293 C17.8346405,3.76335175 18.5986928,3.12799263 19.5686275,2.67679558 C20.5385621,2.22559853 21.654902,2 22.9176471,2 C24.1986928,2 25.3287582,2.23020258 26.3078431,2.69060773 C27.2869281,3.15101289 28.0555556,3.79558011 28.6137255,4.62430939 C29.1718954,5.45303867 29.469281,6.43830571 29.5058824,7.5801105 L25.745098,7.5801105 C25.7267974,6.89871087 25.4660131,6.29558011 24.9627451,5.77071823 C24.4594771,5.24585635 23.7594771,4.98342541 22.8627451,4.98342541 C22.0941176,4.96500921 21.4490196,5.15377532 20.927451,5.54972376 C20.4058824,5.94567219 20.145098,6.52117864 20.145098,7.27624309 C20.145098,7.92081031 20.3464052,8.43186004 20.7490196,8.80939227 C21.151634,9.18692449 21.7006536,9.50460405 22.3960784,9.76243094 C23.0915033,10.0202578 23.8875817,10.2965009 24.7843137,10.5911602 C25.7359477,10.9226519 26.6052288,11.3093923 27.3921569,11.7513812 C28.179085,12.1933702 28.8104575,12.7780847 29.2862745,13.5055249 C29.7620915,14.232965 30,15.1675875 30,16.3093923 C30,17.3222836 29.7437908,18.2615101 29.2313725,19.1270718 C28.7189542,19.9926335 27.9594771,20.6878453 26.9529412,21.2127072 C25.9464052,21.7375691 24.7111111,22 23.2470588,22 Z"/><polygon points="40.698 21 40.698 4.796 35 4.796 35 2 50 2 50 4.796 44.274 4.796 44.274 21"/><path d="M64.4187726 21C63.0288809 21 61.7743682 20.7286985 60.6552347 20.1860955 59.5361011 19.6434925 58.6471119 18.8206929 57.9882671 17.7176966 57.3294224 16.6147004 57 15.2181648 57 13.5280899L57 2 60.465704 2 60.465704 13.5547753C60.465704 15.0135768 60.8222022 16.0987828 61.5351986 16.8103933 62.2481949 17.5220037 63.2364621 17.877809 64.5 17.877809 65.7454874 17.877809 66.7292419 17.5220037 67.4512635 16.8103933 68.1732852 16.0987828 68.534296 15.0135768 68.534296 13.5547753L68.534296 2 72 2 72 13.5280899C72 15.2181648 71.6570397 16.6147004 70.9711191 17.7176966 70.2851986 18.8206929 69.3691336 19.6434925 68.2229242 20.1860955 67.0767148 20.7286985 65.8086643 21 64.4187726 21ZM79 21 79 2 85.3946488 2C87.5886288 2 89.3946488 2.39357143 90.812709 3.18071429 92.2307692 3.96785714 93.2831661 5.07166667 93.9698997 6.49214286 94.6566332 7.91261905 95 9.58190476 95 11.5 95 13.4180952 94.6566332 15.087381 93.9698997 16.5078571 93.2831661 17.9283333 92.2307692 19.0321429 90.812709 19.8192857 89.3946488 20.6064286 87.5886288 21 85.3946488 21L79 21ZM82.4247492 18.0142857 85.2341137 18.0142857C86.8037904 18.0142857 88.0434783 17.7564286 88.9531773 17.2407143 89.8628763 16.725 90.5139353 15.9830952 90.9063545 15.015 91.2987737 14.0469048 91.4949833 12.8752381 91.4949833 11.5 91.4949833 10.1428571 91.2987737 8.97571429 90.9063545 7.99857143 90.5139353 7.02142857 89.8628763 6.27047619 88.9531773 5.74571429 88.0434783 5.22095238 86.8037904 4.95857143 85.2341137 4.95857143L82.4247492 4.95857143 82.4247492 18.0142857Z"/><polygon points="102 21 102 2 105 2 105 21"/><path d="M122.513552,22 C120.616262,22 118.958393,21.5764273 117.539943,20.7292818 C116.121493,19.8821363 115.010223,18.7081031 114.206134,17.2071823 C113.402045,15.7062615 113,13.9705341 113,12 C113,10.0294659 113.402045,8.29373849 114.206134,6.79281768 C115.010223,5.29189687 116.121493,4.11786372 117.539943,3.27071823 C118.958393,2.42357274 120.616262,2 122.513552,2 C124.392772,2 126.046125,2.42357274 127.473609,3.27071823 C128.901094,4.11786372 130.012363,5.29189687 130.807418,6.79281768 C131.602473,8.29373849 132,10.0294659 132,12 C132,13.9705341 131.602473,15.7062615 130.807418,17.2071823 C130.012363,18.7081031 128.901094,19.8821363 127.473609,20.7292818 C126.046125,21.5764273 124.392772,22 122.513552,22 Z M122.513552,18.8232044 C124.320495,18.8232044 125.761531,18.2154696 126.836662,17 C127.911793,15.7845304 128.449358,14.1178637 128.449358,12 C128.449358,9.88213628 127.911793,8.21546961 126.836662,7 C125.761531,5.78453039 124.320495,5.17679558 122.513552,5.17679558 C120.70661,5.17679558 119.261056,5.78453039 118.17689,7 C117.092725,8.21546961 116.550642,9.88213628 116.550642,12 C116.550642,14.1178637 117.092725,15.7845304 118.17689,17 C119.261056,18.2154696 120.70661,18.8232044 122.513552,18.8232044 Z"/><polygon points="136 24 142.667 0 146 0 139.307 24"/></svg>