<svg xmlns="http://www.w3.org/2000/svg" width="24" height="24" viewBox="0 0 24 24"><g fill="none" fill-rule="evenodd"><path fill="#474E4B" fill-rule="nonzero" d="M22,7.75 C22.4142136,7.75 22.75,8.08578644 22.75,8.5 C22.75,8.87969577 22.4678461,9.19349096 22.1017706,9.24315338 L22,9.25 L2,9.25 C1.58578644,9.25 1.25,8.91421356 1.25,8.5 C1.25,8.12030423 1.53215388,7.80650904 1.89822944,7.75684662 L2,7.75 L22,7.75 Z"/><path fill="#000" d="M22 15.75C22.4142136 15.75 22.75 16.0857864 22.75 16.5 22.75 16.8796958 22.4678461 17.193491 22.1017706 17.2431534L22 17.25 2 17.25C1.58578644 17.25 1.25 16.9142136 1.25 16.5 1.25 16.1203042 1.53215388 15.806509 1.89822944 15.7568466L2 15.75 22 15.75ZM22 7.75C22.4142136 7.75 22.75 8.08578644 22.75 8.5 22.75 8.87969577 22.4678461 9.19349096 22.1017706 9.24315338L22 9.25 2 9.25C1.58578644 9.25 1.25 8.91421356 1.25 8.5 1.25 8.12030423 1.53215388 7.80650904 1.89822944 7.75684662L2 7.75 22 7.75Z"/><path fill="#000" d="M22,15.75 C22.4142136,15.75 22.75,16.0857864 22.75,16.5 C22.75,16.8796958 22.4678461,17.193491 22.1017706,17.2431534 L22,17.25 L2,17.25 C1.58578644,17.25 1.25,16.9142136 1.25,16.5 C1.25,16.1203042 1.53215388,15.806509 1.89822944,15.7568466 L2,15.75 L22,15.75 Z"/></g></svg>