<svg xmlns="http://www.w3.org/2000/svg" width="24" height="24" viewBox="0 0 24 24"><g fill="none" fill-rule="evenodd"><path fill="#000" d="M10,3.25 C6.27207794,3.25 3.25,6.27207794 3.25,10 C3.25,13.7279221 6.27207794,16.75 10,16.75 C13.7279221,16.75 16.75,13.7279221 16.75,10 C16.75,6.27207794 13.7279221,3.25 10,3.25 Z M10,4.75 C12.8994949,4.75 15.25,7.10050506 15.25,10 C15.25,12.8994949 12.8994949,15.25 10,15.25 C7.10050506,15.25 4.75,12.8994949 4.75,10 C4.75,7.10050506 7.10050506,4.75 10,4.75 Z"/><path fill="#000" d="M14.2696699,14.2696699 C14.5359365,14.0034034 14.9526002,13.9791973 15.2462117,14.1970518 L15.3303301,14.2696699 L20.1303301,19.0696699 C20.4232233,19.3625631 20.4232233,19.8374369 20.1303301,20.1303301 C19.8640635,20.3965966 19.4473998,20.4208027 19.1537883,20.2029482 L19.0696699,20.1303301 L14.2696699,15.3303301 C13.9767767,15.0374369 13.9767767,14.5625631 14.2696699,14.2696699 Z"/></g></svg>