<svg xmlns="http://www.w3.org/2000/svg" width="24" height="24" viewBox="0 0 24 24"><g fill="none" fill-rule="evenodd"><path fill="#000" d="M11.6,3.25 C8.53481964,3.25 6.05,5.73481964 6.05,8.8 C6.05,11.8651804 8.53481964,14.35 11.6,14.35 C14.6651804,14.35 17.15,11.8651804 17.15,8.8 C17.15,5.73481964 14.6651804,3.25 11.6,3.25 Z M11.6,4.75 C13.8367532,4.75 15.65,6.56324676 15.65,8.8 C15.65,11.0367532 13.8367532,12.85 11.6,12.85 C9.36324676,12.85 7.55,11.0367532 7.55,8.8 C7.55,6.56324676 9.36324676,4.75 11.6,4.75 Z"/><path fill="#000" d="M11.6,13.65 C15.1070082,13.65 17.95,16.4929918 17.95,20 C17.95,20.4142136 17.6142136,20.75 17.2,20.75 C16.7857864,20.75 16.45,20.4142136 16.45,20 C16.45,17.321419 14.278581,15.15 11.6,15.15 C8.92141896,15.15 6.75,17.321419 6.75,20 C6.75,20.4142136 6.41421356,20.75 6,20.75 C5.58578644,20.75 5.25,20.4142136 5.25,20 C5.25,16.4929918 8.09299184,13.65 11.6,13.65 Z"/></g></svg>